PathFileType	4	(X/Y/Z)	C:\Users\Basilio\Documents\Thesis Gigler\squatting_fais\c3dfiles\058\SJ_pre2\markers_experimental.trc
DataRate	CameraRate	NumFrames	NumMarkers	Units	OrigDataRate	OrigDataStartFrame	OrigNumFrames
200.000000	200.000000	4	61	mm	200.000000	954	1272
Frame#	Time	FHD			LBHD			RBHD			C7			T10			CLAV			LSHO			LUUPA			LMUPA			LDUPA			LLEP			LMEP			LRAD			LUL			LRFIN			RSHO			RUPA1			RMUPA			RDUPA			RLEP			RMEP			RRAD			RUL			RUFIN			LASI			RASI			USACR			LSACR			RSACR			LTHI1			LTHI2			LTHI3			LTHI4			LLFC			LMFC			LTIB1			LTIB2			LTIB3			LTIB4			LLMAL			LMMAL			LHEE			LMT1			LMT2			LMT5			RTHI			RTHI2			RTHI3			RTHI4			RLFC			RMFC			RTIB1			RTIB2			RTIB3			RTIB4			RLMAL			RMMAL			RHEE			RMT1			RMT2			RMT5			
		X1	Y1	Z1	X2	Y2	Z2	X3	Y3	Z3	X4	Y4	Z4	X5	Y5	Z5	X6	Y6	Z6	X7	Y7	Z7	X8	Y8	Z8	X9	Y9	Z9	X10	Y10	Z10	X11	Y11	Z11	X12	Y12	Z12	X13	Y13	Z13	X14	Y14	Z14	X15	Y15	Z15	X16	Y16	Z16	X17	Y17	Z17	X18	Y18	Z18	X19	Y19	Z19	X20	Y20	Z20	X21	Y21	Z21	X22	Y22	Z22	X23	Y23	Z23	X24	Y24	Z24	X25	Y25	Z25	X26	Y26	Z26	X27	Y27	Z27	X28	Y28	Z28	X29	Y29	Z29	X30	Y30	Z30	X31	Y31	Z31	X32	Y32	Z32	X33	Y33	Z33	X34	Y34	Z34	X35	Y35	Z35	X36	Y36	Z36	X37	Y37	Z37	X38	Y38	Z38	X39	Y39	Z39	X40	Y40	Z40	X41	Y41	Z41	X42	Y42	Z42	X43	Y43	Z43	X44	Y44	Z44	X45	Y45	Z45	X46	Y46	Z46	X47	Y47	Z47	X48	Y48	Z48	X49	Y49	Z49	X50	Y50	Z50	X51	Y51	Z51	X52	Y52	Z52	X53	Y53	Z53	X54	Y54	Z54	X55	Y55	Z55	X56	Y56	Z56	X57	Y57	Z57	X58	Y58	Z58	X59	Y59	Z59	X60	Y60	Z60	X61	Y61	Z61	

955	4.77	-27.00519752502442	1705.18310546875	-757.4086303710939	-181.0069427490235	1640.39404296875	-827.0708618164065	-21.1433277130127	1715.946411132813	-899.806335449219	-207.1921844482422	1526.211547851563	-843.838562011719	-296.3425903320313	1229.37451171875	-832.9190673828127	-54.8885955810547	1442.296630859375	-827.9864501953127	-57.13877868652345	1499.618041992188	-997.610778808594	-210.3040161132813	1422.795532226563	-1160.8310546875	-190.8280639648438	1376.710327148438	-1169.385009765625	-244.3445739746094	1373.173706054688	-1198.122314453125	-292.7266540527344	1307.957763671875	-1230.88037109375	-348.9606628417969	1318.411987304688	-1180.612915039063	-301.7398681640626	1116.20556640625	-1032.014404296875	-285.5571899414063	1059.13427734375	-1087.887939453125	-226.5902404785157	1112.914672851563	-1023.839538574219	-83.14038848876955	1515.934814453125	-660.9204101562501	-236.4512786865235	1420.338012695313	-508.118865966797	-216.1882629394532	1373.745727539063	-509.4878234863282	-264.7456054687501	1363.49267578125	-475.4390869140626	-308.7672729492188	1314.053466796875	-449.0791320800782	-371.8037109375001	1306.505126953125	-513.0328369140626	-259.8417663574219	1112.484985351563	-619.4738159179689	-244.0551147460938	1063.948974609375	-556.9663696289064	-193.8188781738282	1077.115478515625	-648.1734619140626	-182.7828369140625	985.5634765625002	-955.5899047851565	-180.5798797607422	980.291198730469	-724.6218872070314	-341.9388427734376	1117.406982421875	-822.3836669921877	-357.9519653320313	1089.087158203125	-850.182067871094	-356.4762878417969	1088.259765625	-792.7034301757815	-208.3994293212891	740.9795532226564	-1075.803344726563	-162.778793334961	669.1381225585939	-1087.397216796875	-118.0136260986328	676.0625610351564	-1064.73779296875	-179.6266174316407	611.2691650390626	-1081.0615234375	-162.1024932861328	518.9057006835939	-1086.26513671875	-125.0003051757813	498.948944091797	-966.4346923828127	-128.2730560302735	374.6974487304688	-1072.041748046875	-198.1003875732422	359.7994384765626	-1120.091186523438	-160.4274597167969	340.4517517089844	-1105.0732421875	-181.5046539306641	259.8367004394532	-1084.41357421875	-299.5527648925782	93.2356643676758	-1105.1962890625	-255.9713745117188	92.10158538818361	-1018.747863769531	-356.3999328613282	50.03710556030275	-1043.663330078125	-135.4965209960938	62.36062240600587	-1089.7578125	-144.6452026367188	62.59753417968751	-1136.019287109375	-205.5457000732422	40.33887100219727	-1176.671997070313	-267.7780151367188	801.7679443359377	-625.1058959960939	-215.6956329345704	761.4987792968751	-611.9098510742189	-183.60888671875	769.6084594726565	-614.0734863281251	-218.6578979492188	676.7056274414064	-622.0864257812501	-171.4831237792969	514.0981445312501	-616.2593994140626	-127.1372833251953	491.6747436523439	-740.1228637695314	-151.8279418945313	305.4805908203126	-678.8524169921876	-214.5119934082032	244.8842010498047	-611.4826049804689	-179.5547637939453	229.7160644531251	-639.7085571289064	-195.7335968017579	184.692611694336	-672.4588623046876	-283.9906005859376	94.80531311035158	-630.1431274414064	-234.3188476562501	101.3880233764649	-711.4107666015626	-337.6894226074219	50.32908630371095	-702.3638305664064	-127.9019012451172	54.75623703002931	-640.6079101562501	-141.9622650146485	61.05755615234376	-590.2577514648439	-199.8488159179688	28.49635887145997	-551.8723144531251	
956	4.775	-27.65593528747559	1707.798950195313	-757.1403198242189	-182.145004272461	1643.261474609375	-826.7559814453127	-21.90988731384278	1718.683959960938	-899.3583984375002	-207.9019927978516	1528.658325195313	-843.6499633789065	-295.9209594726563	1231.511108398438	-832.6721801757815	-55.676570892334	1445.283203125	-827.680847167969	-57.87007904052736	1502.846923828125	-997.3382568359377	-210.7618408203126	1425.201904296875	-1160.541015625	-191.1903533935547	1379.177124023438	-1169.027465820313	-244.5596008300782	1375.597778320313	-1197.804809570313	-292.6874694824219	1310.09814453125	-1230.539428710938	-349.1104736328126	1320.508911132813	-1180.397216796875	-300.7890014648438	1118.380615234375	-1031.740356445313	-284.8453979492188	1061.297485351563	-1087.674438476563	-225.8704376220704	1115.396118164063	-1023.602844238281	-84.3429641723633	1518.775634765625	-660.2949829101564	-237.1895446777344	1422.590698242188	-508.0849609375001	-216.7980041503907	1376.221313476563	-509.2698059082032	-265.2784118652344	1365.553466796875	-475.2668762207032	-309.2490844726563	1315.924926757813	-448.8728942871095	-372.2183227539063	1308.245971679688	-512.9299316406251	-259.2939453125001	1114.687622070313	-619.4452514648439	-243.3816070556641	1066.048217773438	-556.8945922851564	-192.9117279052735	1079.489990234375	-647.9984130859376	-181.5687103271485	988.1802368164065	-955.3235473632815	-179.6081237792969	982.7109985351565	-724.3967285156251	-341.1185302734376	1119.5595703125	-822.280212402344	-357.2388000488282	1091.05029296875	-850.1612548828127	-355.5672607421876	1090.597045898438	-792.5615234375002	-208.8785552978516	742.3694458007814	-1075.453002929688	-163.8458404541016	670.3298339843751	-1086.929931640625	-119.0898971557617	676.6812744140626	-1064.1630859375	-181.1214599609375	612.2522583007814	-1080.687377929688	-164.4353790283203	519.9089965820314	-1085.595336914063	-127.5907669067383	499.7825317382814	-965.7239379882815	-130.5569610595703	375.8796081542969	-1071.868408203125	-199.7855529785157	360.4108886718751	-1119.9580078125	-161.3471221923828	341.3333740234376	-1105.24755859375	-182.1534729003907	260.3687133789063	-1084.343505859375	-299.7767944335938	93.25237274169923	-1105.267333984375	-256.2534179687501	92.35901641845705	-1018.837158203125	-356.4834289550782	50.04431533813478	-1043.7109375	-135.5072326660157	62.3498001098633	-1089.752807617188	-144.6305084228516	62.5963706970215	-1136.061401367188	-205.5382537841797	40.2011833190918	-1176.658569335938	-267.6320190429688	803.932556152344	-624.8910522460939	-216.2518615722657	763.2322387695314	-611.8031005859376	-183.6431274414063	770.4553833007815	-614.3192138671876	-219.482650756836	678.3226928710939	-622.0128784179689	-173.143783569336	515.0126342773439	-616.3300781250001	-129.5111236572266	492.8877258300782	-740.3881835937501	-153.2063446044922	306.1191406250001	-678.9116210937501	-215.3405151367188	245.4798583984376	-611.5098266601564	-180.4813079833985	230.1598510742188	-639.6403808593751	-196.1734771728516	185.3047637939453	-672.3068847656251	-284.2040100097657	94.90451049804689	-630.1767578125001	-234.5380096435547	101.540641784668	-711.4008789062501	-337.7505493164063	50.27436828613283	-702.3510742187501	-127.8857498168946	54.7360305786133	-640.6937866210939	-141.9321746826172	61.07867813110353	-590.2972412109376	-199.8623046875001	28.51828575134278	-551.8986816406251	
957	4.78	-28.76776123046876	1710.42236328125	-756.6900024414064	-183.0733947753907	1645.959350585938	-826.5402832031252	-22.72504043579102	1721.369140625	-898.9189453125002	-208.8074340820313	1530.562744140625	-843.5068359375002	-295.6232299804688	1233.372802734375	-832.527038574219	-55.96638870239259	1448.140869140625	-827.4797363281252	-58.50385665893556	1505.726196289063	-997.098571777344	-211.1543731689454	1427.478759765625	-1160.20849609375	-191.5119934082032	1381.556030273438	-1168.718017578125	-244.6597442626954	1377.774658203125	-1197.6162109375	-292.8013000488282	1312.3447265625	-1230.270751953125	-349.0858764648438	1322.447631835938	-1180.064331054688	-300.0745849609376	1120.532348632813	-1031.566040039063	-283.9597167968751	1063.503051757813	-1087.617431640625	-224.8994598388672	1117.660522460938	-1023.521057128906	-85.17260742187501	1521.636108398438	-659.9118041992189	-238.1333618164063	1424.783081054688	-508.0899047851564	-217.3038330078126	1378.591918945313	-509.0820617675782	-265.9028930664063	1367.764404296875	-475.2811889648439	-309.7318725585938	1317.966552734375	-448.4054260253907	-372.5634765625001	1309.64453125	-512.8768920898439	-258.7955627441407	1116.80126953125	-619.3745117187501	-242.3467407226563	1068.345581054688	-556.7622070312501	-191.7955017089844	1082.0078125	-647.8767700195314	-180.7198638916016	990.5023193359377	-955.0855712890627	-178.552963256836	985.0189208984377	-724.1306152343751	-340.4498901367188	1121.558227539063	-822.2106933593752	-356.3128662109376	1092.967163085938	-850.0523681640627	-355.1018676757813	1092.401000976563	-792.4238891601565	-209.4368286132813	743.7831420898439	-1075.150268554688	-164.8042755126953	671.1041259765626	-1086.369995117188	-120.2980270385742	677.4810791015626	-1063.497924804688	-182.8251342773438	613.5633544921876	-1080.160034179688	-166.6130676269532	520.8554687500001	-1085.100341796875	-130.1140594482422	500.5888671875001	-965.164489746094	-131.7966613769532	377.1140136718751	-1071.467407226563	-201.5637664794922	361.1490783691407	-1119.579345703125	-163.3122253417969	342.3557739257813	-1104.7666015625	-183.632797241211	261.3007812500001	-1084.116088867188	-299.9951477050782	93.22946166992189	-1105.317138671875	-256.4227905273438	92.48646545410158	-1018.9287109375	-356.4694213867188	50.06590270996095	-1043.798706054688	-135.5638275146485	62.39440917968751	-1089.8193359375	-144.7215728759766	62.57032012939455	-1136.10693359375	-205.5494842529297	40.14372253417969	-1176.744995117188	-267.7900695800782	805.860046386719	-624.5461425781251	-216.1480712890626	764.6552124023439	-611.8165283203126	-184.0469055175782	772.211364746094	-614.2486572265626	-220.5659790039063	679.9225463867189	-621.9816284179689	-175.3359680175782	515.7742309570314	-616.3355102539064	-131.700439453125	493.5637817382814	-740.4812622070314	-154.5865478515625	306.8845214843751	-678.6462402343751	-216.4803466796876	245.8696594238282	-611.4445190429689	-181.429443359375	230.7296905517579	-639.4936523437501	-196.8227691650391	185.6078796386719	-672.0950927734376	-284.4582519531251	94.92390441894533	-630.1609497070314	-234.7365722656251	101.6551895141602	-711.3630371093751	-337.7931823730469	50.33993911743165	-702.2875366210939	-127.8874893188477	54.74290466308595	-640.6901245117189	-141.9218902587891	61.09817504882814	-590.2792358398439	-199.8034667968751	28.49525451660157	-551.8901367187501	
958	4.785	-29.86126708984376	1713.018310546875	-756.0434570312501	-183.7045593261719	1648.562377929688	-826.4530029296877	-23.56913948059082	1723.817626953125	-898.5108642578127	-209.5172424316407	1532.620483398438	-843.367858886719	-295.1575622558594	1235.070434570313	-832.3423461914065	-56.98932266235353	1450.84326171875	-827.1420898437502	-58.93108367919923	1508.453979492188	-996.832458496094	-211.6455688476563	1429.736572265625	-1159.934448242188	-191.5806884765625	1383.822143554688	-1168.399536132813	-244.9321289062501	1379.873291015625	-1197.373779296875	-292.7709960937501	1314.3447265625	-1230.143798828125	-349.1758422851563	1324.153686523438	-1179.80029296875	-299.3459472656251	1122.449096679688	-1031.373901367188	-282.8262329101563	1065.62451171875	-1087.39453125	-224.0975494384766	1119.860961914063	-1023.456970214844	-86.2980194091797	1524.185546875	-659.9686279296876	-239.2671966552735	1427.117919921875	-508.2016601562501	-218.4002838134766	1380.98046875	-508.721649169922	-266.6996154785157	1370.074096679688	-475.2598266601564	-310.4029541015626	1319.625610351563	-448.1578674316407	-372.8366088867188	1311.390258789063	-512.8166503906251	-257.4299621582032	1119.319946289063	-619.2202148437501	-241.6983489990235	1070.5361328125	-556.4750976562501	-191.2274322509766	1084.148071289063	-647.5661010742189	-179.8695068359375	992.694030761719	-954.8942871093752	-177.4464111328125	987.759460449219	-723.4884643554689	-339.7208251953126	1123.394287109375	-821.9505615234377	-355.3282470703126	1095.021728515625	-849.938171386719	-354.1600952148438	1094.10400390625	-792.1212158203127	-209.8834533691407	745.0062255859376	-1074.900634765625	-165.854721069336	672.1857299804689	-1085.829467773438	-121.28173828125	677.9791870117189	-1063.014038085938	-184.450668334961	614.5288696289064	-1079.625366210938	-168.6780395507813	521.7448730468751	-1084.7470703125	-132.4947967529297	501.1165466308595	-964.6716308593752	-134.0562896728516	377.9580383300782	-1071.406494140625	-203.2471771240235	362.1038208007813	-1119.44384765625	-165.1529846191407	342.9379272460938	-1104.381225585938	-184.9054870605469	261.9935607910157	-1084.003784179688	-300.0950927734376	93.2493133544922	-1105.346923828125	-256.5190429687501	92.57241821289064	-1019.040832519531	-356.5011291503907	50.1180763244629	-1043.859130859375	-135.6153869628907	62.32409667968751	-1089.864379882813	-144.7276153564453	62.57690429687501	-1136.125244140625	-205.5121765136719	40.06766891479493	-1176.803955078125	-267.6671447753907	807.697692871094	-624.3627319335939	-216.5618286132813	766.2061767578126	-611.8104248046876	-184.0374298095703	773.2657470703127	-614.3485717773439	-221.566879272461	681.3316650390626	-621.8523559570314	-177.5029449462891	516.6833496093751	-616.3647460937501	-133.7852630615235	494.3780517578126	-740.3675537109376	-155.3691101074219	307.7530822753907	-678.4930419921876	-217.4267272949219	246.0395202636719	-611.3137207031251	-182.3988342285157	231.4185638427735	-639.4367065429689	-197.9034423828126	186.0348815917969	-671.9332275390626	-284.5582885742188	94.94525146484376	-630.1890869140626	-234.8767089843751	101.7281188964844	-711.3153686523439	-337.8117675781251	50.3143653869629	-702.2938842773439	-127.8849639892578	54.7363739013672	-640.6860351562501	-141.9227447509766	61.10841369628908	-590.2581176757814	-199.7451477050782	28.57955932617188	-551.8609008789064	
